<svg width="22" height="44" viewBox="0 0 22 44" fill="none" xmlns="http://www.w3.org/2000/svg">
<path d="M10.7803 15.4974C10.8072 15.4591 10.8339 15.4211 10.8603 15.3835C10.8929 15.4286 10.9259 15.4742 10.9593 15.5204C11.9908 16.948 13.3625 18.9109 14.7309 21.0603C16.1035 23.2166 17.4493 25.524 18.445 27.6463C19.4746 29.8409 20 31.5724 20 32.666C20 37.8288 15.7081 42 10.836 42C6.04196 42 2 37.9067 2 32.666C2 31.559 2.51449 29.819 3.51328 27.6257C4.48039 25.502 5.78705 23.1938 7.11941 21.0375C8.44763 18.8879 9.77915 16.925 10.7803 15.4974Z" stroke="#4270E0" stroke-width="4"/>
<path d="M10.7803 28.5026C10.8072 28.5409 10.8339 28.5789 10.8603 28.6165C10.8929 28.5714 10.9259 28.5258 10.9593 28.4796C11.9908 27.052 13.3625 25.0891 14.7309 22.9397C16.1035 20.7834 17.4493 18.476 18.445 16.3537C19.4746 14.1591 20 12.4276 20 11.334C20 6.17119 15.7081 2 10.836 2C6.04196 2 2 6.09329 2 11.334C2 12.441 2.51449 14.181 3.51328 16.3743C4.48039 18.498 5.78705 20.8062 7.11941 22.9625C8.44763 25.1121 9.77915 27.075 10.7803 28.5026Z" stroke="#D91E41" stroke-width="4"/>
</svg>
