<svg width="18" height="18" viewBox="0 0 18 18" fill="none" xmlns="http://www.w3.org/2000/svg">
<path d="M17 12.5C15.75 12.5 14.55 12.3 13.43 11.93C13.2542 11.874 13.0664 11.8667 12.8868 11.909C12.7072 11.9513 12.5424 12.0415 12.41 12.17L10.21 14.37C7.3739 12.9272 5.06711 10.6239 3.62 7.79L5.82 5.58C6.1 5.31 6.18 4.92 6.07 4.57C5.69065 3.41806 5.49821 2.2128 5.5 1C5.5 0.45 5.05 0 4.5 0H1C0.45 0 0 0.45 0 1C0 10.39 7.61 18 17 18C17.55 18 18 17.55 18 17V13.5C18 12.95 17.55 12.5 17 12.5ZM9 0V10L12 7H18V0H9Z" fill="#D91E41"/>
</svg>
